<?xml version="1.0" encoding="utf-8"?>
<!-- Generator: Adobe Illustrator 26.1.0, SVG Export Plug-In . SVG Version: 6.00 Build 0)  -->
<svg version="1.1" id="Layer_1" xmlns="http://www.w3.org/2000/svg" xmlns:xlink="http://www.w3.org/1999/xlink" x="0px" y="0px"
	 viewBox="0 0 1500 1000" style="enable-background:new 0 0 1500 1000;" xml:space="preserve">
<style type="text/css">
	.st0{opacity:0.5;fill:#CAE2CA;enable-background:new    ;}
	.st1{fill:#CAE2CA;}
</style>
<rect class="st0" width="1500" height="1000"/>
<path class="st1" d="M645.3,277.6l104.7,49c2,0.9,4.6-1.5,4.9-4.4l24.9-189.7c0.6-3.5-2.3-4.6-4.6-2.3L645.3,270.9
	C643.3,273.2,643.3,276.7,645.3,277.6z"/>
<path class="st1" d="M815.8,96.6l100.9,100.9c1.7,1.7,5.8,0.3,7.5-2.9L1033-14.7c2-3.8-0.9-6.7-4.6-4.6L818.7,89.1
	C815.5,90.8,814,94.9,815.8,96.6z"/>
<path class="st1" d="M1231.2,635.2l74.5,159.8c1.5,2.9,6.7,2.9,9.9-0.3l214.6-196.9c3.8-3.5,1.7-7.8-3.5-7.3l-289.2,37.1
	C1233.2,628.5,1230,632.3,1231.2,635.2z"/>
<path class="st1" d="M598.3,877.2l104.7-49c2-0.9,4.6,1.5,4.9,4.4l24.9,189.7c0.6,3.5-2.3,4.6-4.6,2.3L598.6,883.9
	C596.3,881.5,596.3,878.1,598.3,877.2z"/>
<path class="st1" d="M378.9,129.1L479.8,28.1c1.7-1.7,5.8-0.3,7.5,2.9l108.8,209.4c2,3.8-0.9,6.7-4.6,4.6L381.8,136.6
	C378.6,134.9,377.1,131.1,378.9,129.1z"/>
<path class="st1" d="M889.6,690.2l74.5-159.8c1.5-2.9,6.7-2.9,9.9,0.3l214.6,196.9c3.8,3.5,1.7,7.8-3.5,7.3l-289.2-37.1
	C891.6,697.1,888.4,693.1,889.6,690.2z"/>
<path class="st1" d="M-8.4,596.2V400.2c0-3.5,5.2-6.1,9.9-4.4l308.6,97.5c5.5,1.7,5.5,7.3,0,9L1.7,600.6
	C-2.9,602-8.4,599.7-8.4,596.2z"/>
<path class="st1" d="M1267.5,305.4l-104.7-49c-2-0.9-4.6,1.5-4.9,4.4L1133,450.4c-0.6,3.5,2.3,4.6,4.6,2.3l129.9-140.7
	C1269.6,309.7,1269.6,306.3,1267.5,305.4z"/>
<path class="st1" d="M1311,929.6l-100.9-100.9c-1.7-1.7-5.8-0.3-7.5,2.9L1093.8,1041c-2,3.8,0.9,6.7,4.6,4.6l209.7-108.5
	C1311.3,935.4,1312.7,931.4,1311,929.6z"/>
<path class="st1" d="M900.2,544.1l-74.5-159.8c-1.5-2.9-6.7-2.9-9.9,0.3L601.1,581.5c-3.8,3.5-1.7,7.8,3.5,7.3l289.2-37.1
	C898.2,550.8,901.3,547,900.2,544.1z"/>
<path class="st1" d="M130.8,319.9l-104.7,49c-2,0.9-4.6-1.5-4.9-4.4L-3.8,174.9c-0.6-3.5,2.3-4.6,4.6-2.3l129.6,140.7
	C132.8,315.6,132.8,319.1,130.8,319.9z"/>
<path class="st1" d="M580.8,478l-62.9,128.2c-1.1,2.2-5.4,2.2-8.1-0.3l-170.6-163c-3.1-2.9-1.3-6.6,2.9-5.9l233.5,34.8
	C579.2,472.4,581.8,475.5,580.8,478z"/>
<path class="st1" d="M565.3,882.3l-74.5,159.8c-1.5,2.9-6.7,2.9-9.9-0.3L266.2,844.9c-3.8-3.5-1.7-7.8,3.5-7.3l289.2,37.1
	C563.2,875.3,566.4,879.4,565.3,882.3z"/>
<path class="st1" d="M127.7,624.3v196.1c0,3.5-5.2,6.1-9.9,4.4l-308.6-97.5c-5.5-1.7-5.5-7.3,0-9l308.3-98.3
	C122.2,618.5,127.7,620.8,127.7,624.3z"/>
<path class="st1" d="M542.3,280.3l-49,104.7c-0.9,2,1.5,4.6,4.4,4.9l189.7,24.9c3.5,0.6,4.6-2.3,2.3-4.6L549,280.3
	C546.7,278.2,543.2,278.2,542.3,280.3z"/>
<path class="st1" d="M24.7-49.6L-76.2,51.3c-1.7,1.7-0.3,5.8,2.9,7.5l209.4,108.8c3.8,2,6.7-0.9,4.6-4.6L32.3-46.7
	C30.5-49.9,26.5-51.4,24.7-49.6z"/>
<path class="st1" d="M228.1,802.5L68.3,877.1c-2.9,1.5-2.9,6.7,0.3,9.9l196.9,214.6c3.5,3.8,7.8,1.7,7.3-3.5l-37.1-289.2
	C234.8,804.6,231,801.4,228.1,802.5z"/>
<path class="st1" d="M397.2,240.8l49,104.7c0.9,2-1.5,4.6-4.4,4.9l-189.7,24.9c-3.5,0.6-4.6-2.3-2.3-4.6l140.7-129.6
	C392.8,238.8,396.3,238.8,397.2,240.8z"/>
<path class="st1" d="M394.7-80.7l49,104.7c0.9,2-1.5,4.6-4.4,4.9L249.7,53.9c-3.5,0.6-4.6-2.3-2.3-4.6L388.1-80.4
	C390.4-82.7,393.9-82.7,394.7-80.7z"/>
<path class="st1" d="M1120.9,30.4l100.9,100.9c1.7,1.7,0.3,5.8-2.9,7.5l-209.4,108.8c-3.8,2-6.7-0.9-4.6-4.6l108.5-209.7
	C1115.1,30.1,1118.9,28.7,1120.9,30.4z"/>
<path class="st1" d="M821.6,706.5l159.8,74.5c2.9,1.5,2.9,6.7-0.3,9.9l-196.9,214.6c-3.5,3.8-7.8,1.7-7.3-3.5L814,712.9
	C814.6,708.5,818.7,705.4,821.6,706.5z"/>
<path class="st1" d="M212.9,730.1l87.5-175.5c1.6-3.1,7.4-3.1,10.8,0.5L543.8,780c4.2,4,1.7,8.9-4,8L220,738.5
	C215.2,737.8,211.3,733.2,212.9,730.1z"/>
<path class="st1" d="M1478.8,414.8l50.6-103.9c0.9-2-1.4-4.7-4.3-5l-189.3-27.8c-3.5-0.6-4.7,2.2-2.4,4.6l138.7,132.1
	C1474.5,416.8,1477.9,416.8,1478.8,414.8z"/>
<path class="st1" d="M976.6,467.3l102.5-99.4c1.8-1.7,0.4-5.8-2.8-7.6L868.5,248.4c-3.7-2.1-6.7,0.8-4.7,4.6l105.3,211.3
	C970.8,467.5,974.8,469,976.6,467.3z"/>
<path class="st1" d="M184.8,288.4l160.9-72.1c2.9-1.4,3-6.6-0.1-9.9L151.9-11.1c-3.4-3.8-7.8-1.9-7.3,3.4L177.3,282
	C178.2,286.3,181.9,289.6,184.8,288.4z"/>
<path class="st1" d="M631.1,159.2L583.6,53.8c-0.8-2,1.5-4.6,4.4-4.9l190-22.1c3.5-0.5,4.6,2.4,2.2,4.7L637.7,159.1
	C635.4,161.3,631.9,161.3,631.1,159.2z"/>
<path class="st1" d="M605,783.3l-47.4-105.4c-0.8-2,1.5-4.6,4.4-4.9l190-22.1c3.5-0.5,4.6,2.4,2.2,4.7L611.7,783.1
	C609.3,785.4,605.9,785.4,605,783.3z"/>
<path class="st1" d="M1017.3,957.5l-47.4-105.4c-0.8-2,1.5-4.6,4.4-4.9l190-22.1c3.5-0.5,4.6,2.4,2.2,4.7L1024,957.4
	C1021.6,959.6,1018.1,959.6,1017.3,957.5z"/>
<path class="st1" d="M1393.3,973.1l-99.4-102.5c-1.7-1.8-0.2-5.8,3-7.5l211-105.6c3.8-2,6.7,1,4.6,4.7l-111.7,208
	C1399.1,973.5,1395.3,974.9,1393.3,973.1z"/>
<path class="st1" d="M1409.1,236.3l-158.7-77c-2.9-1.5-2.8-6.7,0.4-9.9L1451-62.1c3.5-3.7,7.9-1.6,7.2,3.6L1416.7,230
	C1416.1,234.4,1411.9,237.5,1409.1,236.3z"/>
<path class="st1" d="M1345.5,371.8l62.6,185.8c1.1,3.3-3,7.4-8,7.3l-323.6,6.2c-5.8,0.1-7.5-5.1-2.9-8.5L1334.5,371
	C1338.5,368.1,1344.4,368.5,1345.5,371.8z"/>
</svg>
