<?xml version="1.0" encoding="utf-8"?>
<!-- Generator: Adobe Illustrator 26.1.0, SVG Export Plug-In . SVG Version: 6.00 Build 0)  -->
<svg version="1.1" id="Layer_1" xmlns="http://www.w3.org/2000/svg" xmlns:xlink="http://www.w3.org/1999/xlink" x="0px" y="0px"
	 viewBox="0 0 1500 1000" style="enable-background:new 0 0 1500 1000;" xml:space="preserve">
<style type="text/css">
	.st0{opacity:0.5;fill:#CAE2CA;enable-background:new    ;}
	.st1{fill:#CAE2CA;}
</style>
<rect class="st0" width="1500" height="1000"/>
<path class="st1" d="M737.6,538.4l-36.4,87c-11.6,27.8,9.1,58.5,39.2,58.1l98.7-1.3c34-0.4,53.3-39.1,33.3-66.5l-62.3-85.7
	C790.9,503.5,750.2,508.2,737.6,538.4z"/>
<path class="st1" d="M1140,388.3l-49.7,286c-3.3,19.1,17.5,33.1,33.9,22.8l346.1-217.6c16.8-10.6,12.5-36.3-6.9-40.7l-296.5-68.4
	C1154.6,367.5,1142.2,375.7,1140,388.3z"/>
<path class="st1" d="M916.6,810.4l9.1,151.9c0.3,4.6,5.1,7.5,9.3,5.5l228.7-107.3c5.7-2.7,4.7-11.2-1.6-12.3l-237.8-44.6
	C920.1,802.8,916.3,806.2,916.6,810.4z"/>
<path class="st1" d="M201.5,496.5l186.5-119c24.3-15.5,55.9,2.8,54.6,31.5l-10.8,248.7c-1.2,28.4-33.7,44-56.6,27.1L199.5,555.1
	C179.4,540.3,180.5,509.9,201.5,496.5z"/>
<path class="st1" d="M253.9-4.9l-84.4,122.2c-8.1,11.7,0.5,27.6,14.7,27.3l317.6-6.7c18.2-0.4,23.7-24.9,7.4-33L275.9-10.6
	C268.2-14.4,258.8-12,253.9-4.9z"/>
<path class="st1" d="M1320.2,53.6l-2.5,209.7c-0.1,8,6.7,14.4,14.8,13.8l317.1-25c13.3-1.1,17.4-18.7,5.9-25.4L1340.8,42
	C1331.8,36.7,1320.3,43.1,1320.2,53.6z"/>
<path class="st1" d="M294.2,820.7L39.7,1055.1c-26.9,24.7-10.4,69.6,26.1,71.1l540.7,22.2c38.4,1.6,57.7-45.8,29-71.5L349.3,820.4
	C333.6,806.3,309.7,806.4,294.2,820.7z"/>
<path class="st1" d="M1471.5-182.7l-318.1-297.9c-21-19.7-76.2-14.9-78.5,6.8l-62.7,594.3c-2.4,22.4,54.3,34.1,77.6,16L1470.5-160
	C1479-166.6,1479.4-175.4,1471.5-182.7z"/>
<path class="st1" d="M-69.6,98.3l193.8,128.4c33.3,22.1,19.6,65.7-23.7,75.5l-186.7,42.5c-34,7.8-67.1-10.8-68.2-38.3l-7.1-170.9
	C-163.1,97.5-105.8,74.3-69.6,98.3z"/>
</svg>
