<?xml version="1.0" encoding="utf-8"?>
<!-- Generator: Adobe Illustrator 26.1.0, SVG Export Plug-In . SVG Version: 6.00 Build 0)  -->
<svg version="1.1" id="Layer_1" xmlns="http://www.w3.org/2000/svg" xmlns:xlink="http://www.w3.org/1999/xlink" x="0px" y="0px"
	 viewBox="0 0 1500 1000" style="enable-background:new 0 0 1500 1000;" xml:space="preserve">
<style type="text/css">
	.st0{opacity:0.5;fill:#CAE2CA;}
	.st1{fill:#CAE2CA;}
</style>
<rect class="st0" width="1500" height="1000"/>
<path class="st1" d="M271.4,247.4c0,62.9-50.2,113.9-112,113.9s-112-51-112-113.9S39.1,36.3,101,36.3S271.4,184.5,271.4,247.4z"/>
<path class="st1" d="M1165.8,369.7c0,62.9-50.2,113.9-112,113.9S830.6,362.2,830.6,299.3s161.3-43.5,223.1-43.5
	S1165.8,306.8,1165.8,369.7z"/>
<path class="st1" d="M711.9,924.7c-62.9-1.3-112.8-52.5-111.6-114.4S726.2,589.7,789.1,591c62.9,1.3,40.2,162.1,38.9,224
	S774.8,926,711.9,924.7z"/>
<path class="st1" d="M370,733.3c17,60.6-17.5,123.2-77.1,139.9S67.2,956.7,50.3,896.1s121.5-225.5,181.1-242.2S353,672.7,370,733.3z
	"/>
<path class="st1" d="M1380.6,753c0,62.9-93.7,196.3-155.6,196.3s-68.5-133.4-68.5-196.3s50.2-113.9,112-113.9
	C1330.5,639.1,1380.6,690.1,1380.6,753z"/>
<path class="st1" d="M634.3,266c0,62.9-93.7,196.3-155.6,196.3S410.3,328.9,410.3,266s50.2-113.9,112-113.9S634.3,203.1,634.3,266z"
	/>
<path class="st1" d="M1430.6,147.4c0,62.9,45.2,175.9-16.7,175.9s-207.4-113-207.4-175.9s50.2-113.9,112-113.9
	C1380.5,33.6,1430.6,84.5,1430.6,147.4z"/>
</svg>
