<?xml version="1.0" encoding="UTF-8"?><svg id="a" xmlns="http://www.w3.org/2000/svg" viewBox="0 0 400 400"><path d="M284.88,3.72H115.12C53.19,3.72,2.76,54.54,2.76,116.95v166.14c0,62.41,50.43,113.18,112.36,113.18h169.75c61.98,0,112.36-50.77,112.36-113.18V116.95c0-62.41-50.38-113.23-112.36-113.23ZM115.12,37.8h169.75c16.67,0,32.08,5.26,44.78,14.17-43.53,52.38-105.02,125.64-129.66,153.15-24.54-27.41-85.79-100.38-129.61-153.15,12.7-8.91,28.12-14.17,44.73-14.17Zm248.3,245.3c0,43.62-35.22,79.1-78.55,79.1H115.12c-43.28,0-78.55-35.49-78.55-79.1V116.95c0-14.46,3.86-28.04,10.68-39.72,13.91,16.7,38.02,45.61,62.17,74.33,79.8,94.73,80.43,94.73,90.58,94.73s10.77,0,90-94.05c24.59-29.21,49.13-58.66,62.75-75.02,6.81,11.68,10.68,25.26,10.68,39.72v166.14Z"/></svg>