<?xml version="1.0" encoding="utf-8"?>
<!-- Generator: Adobe Illustrator 26.1.0, SVG Export Plug-In . SVG Version: 6.00 Build 0)  -->
<svg version="1.1" id="Layer_1" xmlns="http://www.w3.org/2000/svg" xmlns:xlink="http://www.w3.org/1999/xlink" x="0px" y="0px"
	 viewBox="0 0 451.3 434" style="enable-background:new 0 0 451.3 434;" xml:space="preserve">
<g id="flares">
	<path d="M222.4,51.3l36.1,16.9c0.7,0.3,1.6-0.5,1.7-1.5l8.6-65.4c0.2-1.2-0.8-1.6-1.6-0.8L222.4,49C221.7,49.8,221.7,51,222.4,51.3
		z"/>
	<path d="M271.3,76l34.8,34.8c0.6,0.6,2,0.1,2.6-1l37.5-72.2c0.7-1.3-0.3-2.3-1.6-1.6l-72.3,37.4C271.2,74,270.7,75.4,271.3,76z"/>
	<path d="M311.1,116.7l25.7,55.1c0.5,1,2.3,1,3.4-0.1l74-67.9c1.3-1.2,0.6-2.7-1.2-2.5l-99.7,12.8
		C311.8,114.4,310.7,115.7,311.1,116.7z"/>
	<path d="M222.4,381.7l36.1-16.9c0.7-0.3,1.6,0.5,1.7,1.5l8.6,65.4c0.2,1.2-0.8,1.6-1.6,0.8L222.5,384
		C221.7,383.2,221.7,382,222.4,381.7z"/>
	<path d="M271.3,356.9l34.8-34.8c0.6-0.6,2-0.1,2.6,1l37.5,72.2c0.7,1.3-0.3,2.3-1.6,1.6l-72.3-37.4
		C271.2,358.9,270.7,357.6,271.3,356.9z"/>
	<path d="M311.1,316.2l25.7-55.1c0.5-1,2.3-1,3.4,0.1l74,67.9c1.3,1.2,0.6,2.7-1.2,2.5l-99.7-12.8
		C311.8,318.6,310.7,317.2,311.1,316.2z"/>
	<path d="M339.5,251.6V184c0-1.2,1.8-2.1,3.4-1.5l106.4,33.6c1.9,0.6,1.9,2.5,0,3.1L343,253.1C341.4,253.6,339.5,252.8,339.5,251.6z
		"/>
</g>
<g id="initals">
	<g>
		<path d="M251.5,215.8l23-119.6c0.2-1,1.4-1.4,2.2-0.8c34.4,29.3,56.1,72.9,56.1,121.6c0,36.4-12.2,70-32.8,96.9
			c-0.9,1.2-2.7,0.7-2.9-0.8l-3.4-28.8c-0.2-1.6-2.4-2-3.1-0.5l-29.2,65.8c-0.1,0.3-0.3,0.5-0.6,0.7c-5.4,3.5-10.9,6.8-16.7,9.6
			c-0.8,0.4-1.8,0-2.2-0.8l-33.4-75.4c-0.7-1.5-2.9-1.2-3.1,0.5l-7.9,67.3c-0.1,1.2-1.4,1.8-2.4,1.2
			c-45.5-28.1-75.7-78.5-75.7-135.9c0-69,43.8-127.8,105.1-150.1c0.8-0.3,1.6,0.2,1.8,1.1l22.6,147.9
			C249.1,217.2,251.2,217.3,251.5,215.8z"/>
		<path d="M214.3,371.6c-15.1,4.8-31.1,7.5-47.8,7.6C75.8,380.1,1,305.1,2.2,214.4C3.4,125.5,75.7,53.8,164.9,53.8
			c17.2,0,33.8,2.7,49.4,7.6c1.5,0.5,1.5,2.5,0.1,3C159.1,85.7,118.3,136.2,111,197c-0.1,0.8-0.8,1.4-1.6,1.4H69.7
			c-0.9,0-1.6,0.7-1.6,1.6v26.8c0,0.9,0.7,1.6,1.6,1.6h39.1c0.8,0,1.5,0.6,1.6,1.5c0.9,11,2.8,21.6,5.8,31.8c0.3,1-0.5,2.1-1.5,2.1
			h-35c-0.9,0-1.6,0.7-1.6,1.6v16.1c0,0.9,0.7,1.6,1.6,1.6H123c0.6,0,1.2,0.4,1.5,0.9c17.7,38.7,50,69.2,90,84.5
			C215.9,369.1,215.8,371.1,214.3,371.6z"/>
	</g>
</g>
</svg>
