<?xml version="1.0" encoding="utf-8"?>
<!-- Generator: Adobe Illustrator 26.0.3, SVG Export Plug-In . SVG Version: 6.00 Build 0)  -->
<svg version="1.1" id="Layer_1" xmlns="http://www.w3.org/2000/svg" xmlns:xlink="http://www.w3.org/1999/xlink" x="0px" y="0px"
	 viewBox="0 0 34.9 35" style="enable-background:new 0 0 34.9 35;" xml:space="preserve">
	<g>
		<path d="M17.5,0C7.9,0,0.1,7.8,0.1,17.4s7.8,17.4,17.4,17.4S34.9,27,34.9,17.4S27.1,0,17.5,0z M26.1,23.3c0.4-1.5,0.6-3.1,0.7-4.9
			h6c-0.2,2.9-1.1,5.5-2.7,7.7C29.4,25.3,28.1,24.2,26.1,23.3z M4.8,26.1c-1.5-2.2-2.5-4.9-2.7-7.7H8c0.1,1.8,0.3,3.4,0.7,4.9
			C6.8,24.2,5.6,25.3,4.8,26.1z M8.8,11.4c-0.4,1.5-0.7,3.2-0.8,5H2.2c0.2-2.9,1.2-5.6,2.7-7.8C5.6,9.4,6.9,10.5,8.8,11.4z
			M18.5,13.1c2.3-0.1,4.2-0.4,5.7-0.9c0.3,1.3,0.6,2.7,0.6,4.2h-6.4L18.5,13.1L18.5,13.1z M18.5,11.1V2.3c1.1,1.1,3.6,3.8,5.1,7.9
			C22.2,10.7,20.5,11,18.5,11.1z M16.5,2.2v8.9c-2.1-0.1-3.8-0.4-5.2-0.8C12.9,6,15.4,3.3,16.5,2.2z M16.5,13.1v3.3H10
			c0.1-1.5,0.3-3,0.6-4.3C12.3,12.6,14.2,13,16.5,13.1z M10,18.4h6.5v3.2c-2.3,0.1-4.3,0.5-5.8,1C10.3,21.3,10.1,19.9,10,18.4z
			M16.5,23.6v8.8c-1.1-1-3.7-3.7-5.2-8C12.7,24,14.4,23.7,16.5,23.6z M18.5,32.4v-8.7c2.1,0.1,3.8,0.4,5.2,0.8
			C22.1,28.6,19.6,31.3,18.5,32.4z M18.5,21.6v-3.2h6.4c-0.1,1.5-0.3,2.9-0.6,4.1C22.7,22.1,20.8,21.7,18.5,21.6z M26.9,16.4
			c-0.1-1.8-0.3-3.4-0.7-5c2-0.9,3.2-2,4-2.8c1.6,2.2,2.5,4.9,2.7,7.8H26.9z M28.8,7c-0.5,0.6-1.5,1.7-3.3,2.5
			c-1.1-3.1-2.7-5.4-4.1-7C24.3,3.3,26.9,4.9,28.8,7z M13.4,2.6c-1.3,1.6-2.9,3.9-4,6.9C7.7,8.6,6.7,7.7,6.2,7
			C8.1,4.9,10.6,3.3,13.4,2.6z M6.1,27.7c0.5-0.6,1.5-1.6,3.3-2.5c1.1,3.1,2.8,5.5,4.1,7C10.6,31.5,8.1,29.9,6.1,27.7z M21.3,32.3
			c1.4-1.6,3-3.9,4.2-7.1c1.8,0.9,2.9,1.9,3.4,2.6C26.9,29.9,24.3,31.5,21.3,32.3z"/>
	</g>
</svg>
